<?xml version="1.0" encoding="utf-8"?>
<!-- Generator: Adobe Illustrator 27.5.0, SVG Export Plug-In . SVG Version: 6.00 Build 0)  -->
<svg version="1.1" id="Layer_1" xmlns="http://www.w3.org/2000/svg" xmlns:xlink="http://www.w3.org/1999/xlink" x="0px" y="0px"
	 viewBox="0 0 800 800" style="enable-background:new 0 0 800 800;" xml:space="preserve">
<g>
	<path d="M731.999,404.952l-2.153-4.306v-4.737l2.584,0.431l1.722,0.431v-0.861l-0.861-0.431v-2.153l1.292-2.584l-0.431-2.584
		l-0.538-0.646l0.108-0.215l-1.722-1.722h-2.153l-1.292,1.292l-1.292,3.014l-0.861,5.167l-1.722,0.431l0.431-0.861l0.431-0.861
		l-0.129-0.646l0.129-0.646l-0.323-0.323l-1.399-6.997l0.431-1.292l4.737-3.445h3.875l0.431-0.861l-0.431-2.584h0.861v-0.861h0.861
		v-1.722h-1.292l-0.431,1.292l-2.192-0.94l-1.253-2.505v-3.014l-0.861-1.722l0.431-1.292l3.875-1.292l1.292-1.292l0.431-2.153
		l-1.722-0.861l0.861-1.722l-0.431-0.861l-0.431-2.153l3.014-1.292l2.153-1.292l0.861-2.584l1.722-1.292l2.153-2.153l0.431-3.014
		l-4.306-3.875l3.875-1.292l1.292-1.292l1.292-2.153l0.861-4.306l-0.431-4.306l-1.292-2.584l-0.861-4.306l-0.431-0.431l-3.014-1.292
		h-3.445l-1.722,1.292l-1.722-0.431l-0.431-3.014l-0.431-3.875l-2.153-2.584l-0.861-2.584h-0.861v0.861l-3.014,0.431l-1.292-1.722
		l-2.153-2.584l-4.737-1.722l-3.014-3.445l-2.153-0.431l-0.861,0.861l-1.722,2.584l0.431,5.167l0.431,0.431l6.029,3.014l2.153,1.722
		h3.875l0.431,3.875h-3.014v2.153l-1.722-0.431l-0.431-2.153l-2.153-0.431l-0.861-0.861l-1.722-0.861l-0.431,0.861l-1.292,0.431
		l0.431-2.153h-1.292v2.153l-1.292-0.431v-3.875l-0.431-3.014l-2.153-3.014l0.431-3.014v-2.584l-1.722-2.584l-2.153-0.861
		l-0.431-2.153l-1.292-3.445l-0.431-3.014l-0.861-0.861l-3.875-12.918v-3.014l-1.722-0.861l-0.431-3.445l0.431-2.153l3.014-0.861
		l1.292-0.861l0.861-2.584l1.722-1.722l2.153-1.292l0.431-1.722l-1.722-0.431l0.861-2.153l-1.292-1.722h-0.861l-0.861-3.014
		l-1.722-0.861l-2.584-3.014l-0.431-1.722h3.014l0.431-5.167l1.292-0.861l2.153-2.153l1.722-2.153l-0.431-2.153l-3.445-0.861v-0.861
		l-0.157-0.078l-0.274-1.644l0.861-0.431l0.861-1.722l-3.014-0.861l-1.292-0.861l0.861-3.445l-2.584-2.153l-2.153-0.431v0.861
		l-0.861-0.431l-3.875-1.292l0.431-3.014l-0.861-0.431v-2.584l-2.153-0.861l0.431-1.292l1.292-1.292l2.153-1.292l0.431-1.292
		l-1.292-1.722l-0.431-1.722l2.153-3.445l1.722,2.153l1.722,4.306l2.584-0.861l-0.431-1.292l-2.153-3.445l-0.861-3.014l-3.014-0.861
		v-2.153l-0.861-1.722l-1.722-0.431v1.292l0.431,1.722l-1.292,1.722l0.431,2.584l-1.722,0.431l-0.431,2.153l0.861,0.861
		l-0.431,1.722l-0.431,1.292l-0.431-2.584l-1.292-0.431l-2.584,0.431l-2.153,2.584v4.306l0.431,2.153l-1.722,0.431l-2.584,1.722
		h-2.584l-0.861-0.431l-0.861-1.722h0.861l1.722-1.292l1.292-1.292l-0.431-1.292l-6.275-1.845l-2.338-1.169l-1.292-0.861
		l-0.47,0.157l-0.391-0.157l-0.431,0.431l-0.185,0.431h-0.246l-0.861,2.584l-1.292-0.969l-3.014-3.768l-4.306-6.029l-1.696-1.884
		l-0.888-1.13l-0.565-0.484l-0.727-0.807l-3.445-4.306l-3.875-5.598l-1.722-2.215v-0.369l-0.766-0.67l-0.096-0.191l-0.287-0.246
		l-0.143-0.185l-1.077-0.861l-4.521-3.875l-1.034-0.775l-1.55-1.378l-2.584-3.875l-1.722-0.861l-3.875-3.875l-3.014-3.445
		l-1.722-3.875l-2.153-1.292l-0.431-1.722l-1.292-1.722l-2.584-1.292l-3.875-0.861v-1.292l-1.292-1.292l-1.786-1.276l0.064-0.016
		l-4.306-3.014l-4.306-0.861v-0.861l-3.875-3.014l-4.737-3.875l-3.05-2.135l0.036-0.018l-2.411-1.722l-1.679-1.292l-3.23-2.584
		l-0.718-0.239l-4.019-2.344l-3.875-3.445l-0.655-0.262l-0.206-0.169l-3.1-2.411L562.77,113l-0.587-0.196l-4.58-2.819l-8.612-4.737
		l-1.292-3.014l-1.722-0.431v1.292l-1.722-0.431l-3.875-2.584l-3.875-2.153l-5.598-2.153l-1.292-0.431l-10.765-5.598l-1.292-1.292
		l-3.014-0.431l-3.875-1.722v-2.153l-0.431-2.153l-3.875-2.153h-2.584l-1.394,1.743l-2.051,0.41l-1.292-0.861l-3.875-1.292
		l-2.584-2.153l-3.445,0.431l-2.584-2.584h-2.584l-1.722-0.431l-0.431-0.431l-7.751-1.292l-4.306-1.722l-9.904-3.014v-1.292
		l-0.431-2.153h-2.153l-1.005,1.34l-0.779,0.26l-2.953-0.738l0.861-1.722l0.861-2.153l-1.292-2.153l-2.584-0.431l-2.584,2.153
		l0.431,2.153l0.861,2.153h-5.167l-4.306-0.861l-0.241,0.034l-0.189-0.034l-4.306-0.431l-8.182-1.292l-7.751-0.861l-1.722,1.292
		l-3.207-0.356l-2.391-1.366l-2.153-2.584l-2.153,0.431l-0.431,1.292l-1.292,0.431l-1.292-1.292l-0.298,0.099l-0.132-0.099
		l-0.538,0.323l-0.323,0.108l-1.762,0.705l-0.638-0.213L400,60.465l-2.584-2.153h-3.445l-3.014,3.445h-3.445l-0.185,0.031
		l-0.246-0.031l-2.584,0.431h-2.584l-1.292-1.722v-2.153l0.431-0.431v-2.584l-0.861-1.292l-6.89-3.445h-2.584l-0.861,0.431
		l-3.014,3.445l-1.722,0.431v-0.861l-3.875,0.431l-0.861-1.292l-2.153-0.431l-2.153,2.153l-0.431,2.153l1.722,1.722l0.861,2.584
		l0.861,0.861l3.014,0.431l-0.431,0.861l-5.598,0.861l-10.335,1.292l-12.488,2.153l-14.641,3.445l-0.086,0.043l-1.636,0.388
		l-1.507,0.431h-0.646l-5.598,1.722l-3.445,0.431h-1.722l-1.722,0.861l-3.875,0.861l-1.292,0.861l-4.306,0.861l-0.431,0.431
		l-4.306,0.861l-3.014,1.722l-2.153-0.431l-0.887,0.127l-1.266-0.127l-0.587,0.392l-0.274,0.039l-1.096,0.959l-0.196-0.098
		l-2.153,2.153l-4.306,0.431l-0.861-3.445l-1.292-0.431l-0.861,1.292l0.431,2.584h0.861v2.153l-1.722,0.431l-2.153-0.431v-3.014
		h-1.292l-0.431,0.431l-0.326,2.61l-1.827,2.558h-3.875l-1.292,0.861l-0.352,0.587l-0.078-0.157l-0.861,1.722l-2.153,0.431v-0.861
		l-1.292-1.292l-0.431-1.722l1.722-1.292l4.737-1.722l1.292-1.292v-3.445l-0.431-0.431l-1.722-0.431l-1.292,1.292h-2.153
		l-2.584,0.431l-0.837,1.34l-0.024-0.048l-1.292,2.153v3.014l-2.153,2.153l-1.722,2.153l0.431,3.014h0.861v1.722l-2.153,1.292
		h-3.014l-0.861,1.292l0.039,0.078l-0.47,0.783l-5.167,2.584l-2.153,0.431l-1.292,0.431h-2.584l-0.861,2.153l-3.23,1.615
		l-3.23,0.969v-3.014l-1.722-2.584l-2.584-0.431l-3.014,1.722l-1.292,2.584h2.153l-0.431,3.014l0.861,0.861l0.431,2.153
		l-0.861,1.292l-2.584,2.153l-2.297,3.062l-2.01,1.675l-3.014,1.292l-0.861,2.153l-1.292,0.431l-3.445-0.861l-0.603,0.482
		l-0.258-0.052l-1.292,1.292l-0.062,0.123l-0.369,0.308l-2.584,0.861l-2.153,1.292l-2.153,2.153l1.292,1.292h-0.861l-3.014,0.431
		h-6.459l-0.431-2.584l-2.153,0.431l-0.431,2.153l1.292,1.292l-0.431,2.153l-3.445,1.292l-0.431,1.722l1.722,0.431l1.292-0.861
		l2.153,0.431v1.292l-2.584,1.722l-0.431,3.014l-3.875,2.153l-2.153,1.292l-0.431-3.014h-0.861v-1.722h0.861l0.431-0.861
		l-0.096-0.478l0.096-0.383l-0.215-0.215l-0.215-1.077l-3.445-2.584v-2.153h-1.722l-0.431,2.153l-0.431,3.014l0.043,0.388
		l-0.043,0.043l0.431,3.445l-0.861,0.431l-0.215,0.646l-1.077,1.077l-0.117,0.196l-0.313,0.235l-0.123,0.492l-0.738,1.23v3.014
		l1.292,1.722l-0.794,3.176l-0.606,0.269h-0.323l-1.148,0.574l-1.005,0.287l-0.196,0.313l-0.235,0.117l-0.185,0.554l-1.538,2.461
		l-2.512-0.251l0.359-0.179h-2.153l-3.014,3.014l-0.431,2.153l0.861,1.292l0.431,1.722l-3.445,4.306l-2.153,0.861l-0.861,2.584
		h-0.861l-1.292,1.292l-3.875,4.737l-2.584,2.153l-0.404,0.538l-0.027-0.108l-2.153,3.014l-2.871,3.732l-3.158,4.019l-0.431,0.431
		l-1.722,1.722l-0.431,0.431v0.215l-0.431,0.646l-0.431,0.431l-2.584,3.014l-1.722,1.722l-0.689,1.033l-0.603,0.689v0.215
		l-1.292,1.938l-1.722,3.014l-1.722,2.584l-2.584,4.306l-3.445,6.029l-3.875,6.459l-0.861,1.579l-0.861,1.435l-0.066,0.265
		l-0.795,1.457l-1.722,2.153l-3.014,5.598l-5.167,8.612l-0.861,2.153H88.24l-0.861,3.014l-2.153,0.431l-0.861-0.861l-1.722-0.431
		l-0.431,1.292l1.292,0.431l-0.431,1.722l-0.861,0.861l-0.431,0.431l0.161,0.646l-0.161,0.646l0.861,1.292l1.722,0.861l-0.431,2.584
		l-3.445,7.32l-1.216,3.445h-0.076l-1.292,3.875l-2.584,6.459l-1.722,5.598l-1.292,5.167l-0.431,1.722l0.021,0.082l-0.373,1.64
		h-0.078l-0.062,0.615l-1.23,5.413l-1.722,5.167l-0.861,5.598l-1.722,2.584l-0.039,0.235l-0.391,0.626l0.132,0.927l-0.132,0.795
		l0.203-0.304l0.228,1.596v3.014l-1.292,2.153v5.598l-1.292,3.014l-0.431,5.167l-0.861,4.306l-0.431,4.737v9.904l-0.861,2.153
		l-0.861,6.459l-1.722,2.153l-1.722,0.861l-0.861-1.292l-2.153,0.431v3.014l0.861,0.431h2.584l1.292,2.584l-0.431,3.875v11.626
		l-3.445-2.584h-3.014l-2.153,1.292l-1.722,2.584v2.584l0.861,1.722l2.153,2.153l3.445,0.431l3.875-2.584l-0.431,4.306l-1.722,0.431
		l-0.861,0.861l0.431,1.722h2.153l2.067,6.545l0.086,0.344l0.431,2.368v2.368l-0.431,0.431v2.153l1.292,0.861v2.153l0.431,3.445
		l1.292,4.306l0.431,4.306l1.292,7.32l1.292,9.904l1.722,10.765l0.431,3.875l-1.722-0.861l-2.584-0.431l0.431,2.153v2.584
		l-2.584,0.861v1.722l0.861,0.861l4.737,3.014l2.153,0.861l-0.431,2.153l-2.067,2.067l-3.1-0.344l-1.292,3.875v4.737l0.431,0.431
		l1.722,2.584l2.153,5.598l2.584,3.014l3.875,2.584l4.306,0.431l1.722,0.861l0.861,1.722l-4.737-0.431l-1.722,1.292v2.584
		l0.431,0.861l2.153,1.722l6.459,2.153l0.861,2.584l0.861,1.292h3.014l0.861-1.292l2.153,0.431v3.445l1.292,0.431l0.861,6.029
		l-1.722-0.431l-3.445,1.292h-3.875l-0.861,0.861l-0.431,1.722l0.861,0.861l4.737,0.431l1.722,1.292l0.718-0.143l0.574,0.143
		l0.323-0.323l0.538-0.108h3.014l0.861,0.431l1.292,2.153l2.153,2.584l2.584,5.167l3.445,4.306l1.722,4.306l3.875,6.459l0.025-0.076
		l5.573,9.119l3.875,6.89l1.722,1.722l1.722,2.153l3.875,3.875l1.722,2.584l-0.431,3.875l4.306,0.431l0.431,0.431l0.861,2.584
		l1.722,1.292l2.153,0.861v0.861l2.153,3.445l3.875,4.737l3.875,4.306l1.292,3.014l2.153,1.292l2.153,2.584l3.445,3.014l2.584,3.014
		l5.167,5.167l2.153,2.153h0.308l0.984,0.861l3.014,3.014l1.033,0.689l0.689,0.603l0.538,0.215l1.615,1.077l0.431,3.014l2.584,0.431
		l5.167,3.875l4.306,3.445l11.626,9.043l0.431,1.722l2.584,0.431l5.598,3.83v0.045l2.584,1.722l7.751,4.306l3.875,3.445l3.014,0.431
		l0.431,0.431l1.292,0.718l0.861,0.574l0.431,0.144l5.167,2.871l2.153,2.153l3.875,0.431l6.029,3.875l6.89,3.445l4.737,1.292
		l2.153,1.722h3.875l1.292,0.323v0.108l4.88,1.22l5.024,1.794l3.875,0.861l1.722,0.861l1.722,0.861l4.737,0.431l1.722,2.153
		l1.722,0.431l0.431-0.861l2.584,0.431l1.077,0.269l-0.215,0.161l2.584,0.431l0.861,0.861l3.875,1.292l0.431,2.584l1.292,1.722
		l3.014,0.861l0.861,2.153l5.167,4.306v2.153l-2.584,0.431l-3.445,1.722l-2.153,0.431l-0.861-0.861l-2.584-0.431l-0.431,0.431
		l-0.646,2.907l-0.646,0.969v4.306l2.153,1.722h3.875l1.722-1.292l6.89-2.153l3.445-2.153h3.875l0.431,2.153l0.861,2.153
		l3.014,0.431l2.153-0.861v2.153l1.292,1.292h2.153l2.153,0.431l-0.431,4.306h1.292l0.861-0.861h2.584l2.584,1.292l0.431-2.153
		l-2.153-1.722l-0.861-3.445h0.861h2.153l2.153,1.292l1.292-0.431v-2.153l-3.445-1.722l-0.431-1.722l2.153-3.014l0.861-3.875
		l0.861-1.722l3.445-0.861l7.751,0.431l0.431,3.445l2.153-0.431h2.584v2.584l1.722,0.861l0.861-1.292l1.722-0.861l0.431-2.153h1.722
		l-0.431,1.292l-0.861,0.431l-0.431,1.292l1.722,0.861l0.861,1.722h0.861l1.292-1.292l3.014-0.431l0.861-0.861v-2.584l6.029-0.431
		l4.306,0.861l1.292,2.153l3.445,1.292l2.584-0.431l-0.431,0.861l-2.153,0.431l-3.445,2.153l-0.431,3.014l-2.584,0.431l-0.517,0.258
		l-0.775,0.172l-0.431,0.431l-0.861,0.431l-0.215,0.646l-0.646,0.646v3.014l0.431,0.861l0.718,0.574l0.574,0.718l0.431,0.086
		l0.431,0.344l0.646-0.129l0.646,0.129l0.47-0.352l0.391-0.078l0.235-0.391l0.626-0.47l0.119-0.772l0.312-0.52l0.215-0.861h0.215
		l0.861-4.306h0.861l-0.215-0.108l4.521-0.754l0.861-0.861v-2.584l0.861-0.431h5.167l0.431-0.431l1.292-3.014H400l1.292,3.014
		l2.584,0.861v1.722l-2.153,3.014H400l-1.292-1.292l-1.722,0.431l0.431,4.737l0.861,1.722l2.153,1.292l0.316-2.526l0.115-0.057
		v-0.861l2.153,0.718l2.153,1.435l0.861,2.584l2.584,3.014v2.153l-1.292,1.722v3.014l1.292,1.292l2.584,0.431l1.722-2.153v-2.584
		l1.722-2.153l1.722-3.014l0.861-3.445l-1.292-1.722l-0.431-1.722l1.292-0.861l-0.431-1.722l-3.445-0.431l-1.292-0.861l-0.861-3.014
		h-0.861v-2.153h0.861l-0.287-0.072l2.871-0.359l1.292-1.722l0.861,1.722h1.722v-2.153l2.503,0.834l-0.35,1.749l-0.431,4.306
		l1.292,1.292l2.584-0.431v-1.292l-1.722-2.584l2.153,0.431l3.445,4.737l3.875,1.292l0.861,1.722l2.153,0.431l-0.431,1.292
		l-1.722,0.861l0.431,2.153l3.445,2.153l2.584,3.014l2.153,2.153l1.292,2.153h-3.014v1.722l-0.431,6.89l1.292,3.014l3.445,2.584
		h3.445l4.737-0.861l0.861-1.722l1.722-2.153l0.431-2.153l-2.584-4.306l-3.875-3.445l0.431-1.722h2.584l0.861-1.722l4.306,0.431
		v1.292h-2.584l-0.861,0.431v1.292l2.584,4.306l0.861,3.875l3.445,3.875l1.722-0.431l1.722-3.014h3.445l6.029,4.737h3.445
		l3.014-1.292l1.722-2.153l2.584,0.431l3.014-0.431l0.431-1.292h0.861l2.153,2.153l3.014,0.861l0.431,2.584l1.722,0.861v0.861
		l1.292,2.584l1.292,0.431l0.431-2.153l1.292,0.431l2.153,1.722h3.445l3.445-0.861l2.153-1.722v-4.306l-0.861-3.875l-0.861-0.431
		l-1.292-3.014l0.431-3.445l0.861-0.431v1.292h3.014v1.292l0.323,0.323l0.108,0.538h0.431l0.431,0.431l5.167,0.431l5.167,3.014
		l3.875,0.431l1.722-0.861l1.722-4.737v-4.306l-1.292-3.445l-0.431-2.584l0.861-1.722l2.153-2.584v-3.014l3.014-0.861l3.014-1.292
		v1.292l1.292,1.292l3.445,0.431l0.431,2.153l4.306,2.153l2.153,3.875h2.153l0.861-0.861v-3.445l-1.722-2.584l-3.875-1.292
		l-0.431-1.292l1.722-0.431l3.875-1.292l3.014-0.861l1.722-1.292l1.292-1.292l0.861-0.861l-0.431-5.598l-2.153-0.861l-0.861-2.153
		l-1.722-1.722l-3.014-0.861v-1.292l0.861-0.431v-0.861h0.861l0.861,0.861l0.861,0.861l2.584,0.431l2.153-1.722v-0.072l0.431-0.359
		l0.431-3.875l3.875-0.431l2.584-2.153l2.153-2.153l0.861,0.431l-0.431,2.584l0.431,2.153l1.722,0.431l2.153-2.153l-0.431-3.445
		l0.861-1.722h-0.861v-3.875l-0.431-3.875l-0.431-0.431l-1.292-1.292h-2.153v-1.292l3.014-0.861l-0.068-0.023l1.36-0.408
		l0.431-2.584h3.445l0.431-0.431l0.861-0.861v-2.153l0.861-1.722l-0.861-4.306h0.861h1.722l3.445,1.292l2.153,3.014l0.861,2.153
		l-0.431,1.292l0.431,2.584l0.861,1.722l5.167,0.431l0.431-0.861l2.153-0.861l1.292-3.445l2.153,0.431l2.153,2.153l1.722-0.431
		l3.014-0.861l0.431-1.292l2.584-0.861l0.861-1.292l-1.292-1.722l-1.292-3.014l-1.292-0.861l-0.369,0.092l-0.062-0.092v0.108
		l-1.292,0.323l-0.861,2.584l-1.722-1.722l-6.459-0.431v-1.292l0.861-1.292v-2.584l-0.861-1.292l-3.445-1.722l-2.584,0.431
		l-1.292-5.167l3.014,1.722l3.445,0.431l2.153-1.292l3.445-3.014v-2.153l-1.292-2.153v-4.306l0.431-0.861h1.722l1.722,0.861
		l0.161-0.054l1.13,0.484l3.014-0.431l0.861-2.153l-0.133-0.397l0.133-0.464l-0.345-0.172l-0.086-0.258l-0.861-2.153h0.861
		l2.153-0.431l-0.431-3.014l-1.292-1.722l-0.861-1.722l3.014-0.431l1.292-2.153l1.722-0.431l-0.861,2.153v4.306l-0.431,3.014
		l0.861,0.431l2.584,0.431l0.431-1.292l3.875,0.431l0.431,0.431l-1.292,1.722l-2.153,1.292v1.722l0.861,0.861l-0.861,0.861
		l-0.861,1.722l2.584,0.861l0.431,0.861l-1.722,0.431l-0.431,1.722h1.722l0.431-0.861l0.861,1.292l3.014,0.431l0.431-0.431
		l0.431-2.584l-1.292-0.431l0.431-1.292l-0.431-2.153l-0.274-1.918l0.274-1.096l-0.431-2.584l0.861-3.445v-1.722v-3.445
		l-2.153-0.861l0.431-1.722l2.584-0.861l1.292,1.722l0.102,0.021l0.328,0.41l1.06-0.132l0.662,0.132l0.574-0.287l1.086-0.136
		l-0.368,2.576l-1.292,2.584l-0.431,3.014l2.153-0.431l0.861-2.153l1.722-3.445l0.431-0.861l0.086-0.431l0.345-0.861l3.014,0.431
		l1.292,1.722l-0.861,1.292l-1.292,2.584l-0.431,5.167l0.431,0.431l0.431,0.431h0.718l2.297,0.861l0.431,1.722l1.722,1.722h2.584
		l3.445,0.431l1.722-1.292l-0.431-1.722l-3.875-0.861v0.861h-1.292l-0.431-2.153h-2.153l0.431-1.722l-0.861-1.292l0.861-1.722
		l-0.172-0.344l0.172-0.517l-0.94-1.253l-0.352-1.762l4.306-3.014v-1.722l-0.431-0.431v-1.722l1.292-3.875l0.646-1.292h0.215
		l0.861-2.153v-3.875l3.875-2.153v-0.861l-2.584-0.431l0.431-1.722l1.292-1.292v-3.445l-1.722-2.584h-1.292v1.292l0.388,0.646
		l0.043,0.215v1.722l-3.875,1.722l-3.014,0.431v-1.722l0.861-1.292l0.431-3.445l1.722-1.722l-0.431-3.014l1.292-3.014l3.014-3.875
		h1.722l6.029,0.861l1.722-0.431l2.153-3.445v-3.445h1.722l0.431,0.861l0.239,0.144l0.191,0.287l0.492,0.123l1.23,0.738h4.306
		l0.431-0.431l2.319-0.331l1.987,1.193l1.292-0.431v-3.014l1.292-1.722l-0.431-1.722l-2.584-0.861l0.431-5.167l-1.292-1.292h-3.014
		v-1.722l-1.292-1.722h-2.153l-0.431,2.584h-1.292l0.861-1.292l2.153-5.167l2.153-1.292l-0.861,4.306l2.153,0.431l1.722,1.292h2.153
		l1.722-1.722v-5.167l2.153,1.292l2.153,0.431l1.292-1.722l-0.431-1.722l-0.942-0.404l0.081-0.027l-2.153-0.861l-0.861-2.584
		l-1.292-0.431l-0.431-2.584l-0.861-0.431l0.431-1.292l1.722-0.861v-1.722v-1.722l2.153-2.584l1.292-2.153l1.722-2.584h4.306v-1.722
		l-3.445-0.431l0.431-1.292l1.722-2.584l1.722-3.445h2.153l0.431-1.292l-1.749-1.399l-0.242-0.969l0.226-0.904l0.904-0.603
		l2.153-3.875l1.722-3.875l1.722-0.431l0.431-1.292l2.153-3.014l-0.381-2.666l1.242-2.07l0.431-3.445v-4.737l0.431-1.292
		l0.861-0.861l-0.157-0.078l1.879-2.505l2.153-5.598l0.861-3.445l1.722-6.029l1.722-2.584l0.861-5.167l2.153-3.445l1.722-6.459
		l0.431-3.875l0.861-0.861l1.722-2.584l2.153-5.167l1.292-1.292l1.292-2.584l0.086-0.517l0.345-0.775l-0.129-0.517l0.129-0.775
		l-0.861-0.861l-0.646,0.161l-0.646-0.161l-0.431,0.431l-0.861,3.014l-0.861-0.431l-0.431-8.182l1.292-9.473l1.292-3.875
		l2.584-0.861l0.431-5.598l2.153-5.167h2.584l2.153-2.584l0.861-4.306l0.861-1.292l2.584-1.722l3.014-3.445V404.952z
		 M332.825,728.769l-1.292-1.292h-2.584l0.431-1.722l0.861-0.431l3.875,0.431l0.923,0.615l0.8,2.399H332.825z M310.433,722.741
		l0.431-1.722h0.861l0.431,2.153L310.433,722.741z M325.074,725.755v-1.722h1.722l0.431,0.861l-0.431,1.292L325.074,725.755z
		 M589.037,679.25v-2.153l0.431-0.431l3.014,1.292v0.861l-1.722,1.292L589.037,679.25z M566.645,696.474l-0.431-0.861l0.431-1.292
		h0.861l0.431,1.722L566.645,696.474z M539.517,722.741v-3.014l-0.431-0.861v-0.861l0.861-0.861h1.722l1.722,3.014l0.431,2.584
		H539.517z M545.546,708.961h0.861l0.431,1.722h-0.861L545.546,708.961z M547.699,712.406l-0.861-1.292l1.722,0.861L547.699,712.406
		z M549.852,705.517l-2.153-2.153l-2.584-0.861l-0.861-2.584l-0.894-0.596l-0.397-1.987l1.722-3.445l2.153,0.431l1.292,1.722
		l3.445-0.431l0.431,0.431l0.431,0.431h2.584l-0.308,1.23l-0.554,0.923l0.431,1.722l0.861,2.584l0.615,1.077l0.677,2.368
		l-3.445,1.722l-1.722-0.431L549.852,705.517z M505.068,742.549l-1.779-0.711l-0.374-1.872l1.722,0.861l1.292-0.431l-0.861-3.445
		l1.292-0.431l2.584,3.014h2.584l0.861-0.431l-0.431,1.722l-2.153-0.431h-3.445L505.068,742.549z M510.236,736.52h-0.861
		l-0.431-2.153h1.292V736.52z M505.93,734.367v-1.292l1.722,0.861L505.93,734.367z M514.111,733.076l1.722,0.431l0.431,1.722
		l-1.292,0.431l-1.292-1.722L514.111,733.076z M496.026,729.2l0.431-2.584h-1.292l0.431-1.722l2.153-0.431l3.875,0.431v-3.875
		l1.393-0.836l1.621,0.405l0.861,2.153l1.722,2.584l0.861,2.584l1.292,0.431l0.861,1.292l2.584,0.861l0.431,2.153l-1.722,0.861
		v-1.722l-1.722-0.861l-0.431,1.292l-0.861,0.431v-0.861l-0.287-0.287l-0.144-0.574h-0.431l-0.431-0.431v-4.737l-2.153-0.431
		l-2.153,0.431l0.431,2.153l-0.431,3.875l-0.861,0.861l-2.067-0.344l-0.947-0.947L496.026,729.2z M511.528,742.549l-0.431,1.292
		h-0.861l-0.431-1.722L511.528,742.549z M663.102,581.932l-2.153,1.292l0.337,0.112l-1.198,0.749l-3.137,1.046l-0.738-0.185
		l0.861-1.722l0.861-0.431l0.431-2.153l1.292-0.431v1.292l1.722,0.431l1.722-0.861V581.932z M695.828,222.805l-1.722,0.431
		l-2.584-2.153l1.722-1.722h0.861l1.722,1.292V222.805z M683.34,231.417l0.431,2.153L682.048,234l-0.431-2.584H683.34z
		 M680.326,212.039h1.292l1.292,0.861l-0.257,1.797l-0.174-0.075l-0.431,0.861h-0.861l-1.292-0.431l-0.431-2.153L680.326,212.039z
		 M664.393,206.011v0.431l2.153,1.722l0.431,1.722l-1.292,0.431l-1.292-1.722l-0.129,0.258l-1.163-1.55l-0.861-1.722
		L664.393,206.011z M666.977,569.014l0.923-1.538l0.369-0.185l0.861,0.861l1.722,0.861l-0.861,1.292l-3.014,0.431V569.014z
		 M688.077,214.193v0.861l-0.861-0.861H688.077z M654.059,586.238h1.292v4.306l-0.431,0.431l-2.584-0.431l-0.431-1.722
		L654.059,586.238z M650.183,593.558h-0.861v-0.861h0.861V593.558z M718.65,355.432l-1.292-3.014l-2.153-1.722l0.431-3.445
		l0.431-0.431l3.014-0.431l3.445-0.431v2.153l-0.861,2.153l0.431,3.445l-1.292,1.292L718.65,355.432z"/>
	<path d="M736.305,292.133l1.292-2.153v-2.584l-0.431-0.861l-3.445-2.584l-3.445-0.431l-0.431,0.431h-1.722l-0.861-1.722
		l1.292-0.861l2.153-2.153l-0.861-2.584l-0.431-2.584l0.861-0.861v-1.722l-0.431-2.153l0.861-1.292l0.431-2.153l-3.875-1.292
		l-0.861,0.431v0.431l-0.431,0.431l-2.584,3.445l0.431,1.722l-0.431,3.014l-1.722,0.431l-2.153,0.431l-1.378-1.033l-0.488-0.976
		l-0.126-0.628l1.13-0.377l1.292-2.153l2.153-1.722l0.017-0.086l0.413-0.345l-0.172-0.861l0.172-0.861l-0.363-0.091l-0.068-0.34
		l-0.822,0.117l-0.47-0.117l-1.722,0.431l-1.722,1.292l0.431,2.153l-2.584,1.292l-1.722,1.722l0.431,1.292l0.587,0.352l-0.157,0.078
		l1.722,0.861l3.014,0.431l-0.431,2.584l-1.292,2.584v4.737l2.153,2.153l3.014-0.431v1.292l0.861,1.722l2.153,1.722h2.584
		l2.584-2.153l1.292,1.292l2.153,1.722L736.305,292.133z M722.526,283.951l-0.431-2.153l0.861-0.861l0.861,0.431l0.431,2.153
		L722.526,283.951z"/>
	<polygon points="709.177,623.701 710.038,621.117 710.469,617.672 709.607,615.95 706.593,613.366 703.579,613.366 
		702.718,613.797 700.134,614.228 698.842,612.936 695.828,612.936 694.967,613.797 692.814,615.95 692.168,617.242 
		691.952,617.242 691.809,617.96 691.522,618.534 691.399,620.01 691.091,621.548 691.194,622.471 691.091,623.701 691.45,624.778 
		691.522,625.423 691.78,625.768 691.952,626.285 693.675,628.294 694.105,628.868 694.213,628.922 694.536,629.299 
		698.412,631.452 704.44,631.883 706.593,630.591 709.607,627.146 	"/>
	<polygon points="101.158,171.993 103.741,173.285 108.909,172.854 111.062,174.146 113.215,173.715 115.368,171.993 115.52,171.74 
		116.229,171.132 116.574,169.983 116.66,169.84 117.952,166.395 117.779,165.534 117.952,164.673 117.569,164.481 117.521,164.242 
		117.09,160.366 115.799,158.213 111.923,155.63 107.617,154.338 103.311,156.06 100.727,158.213 99.435,162.95 99.005,166.395 
		99.866,169.409 	"/>
	<polygon points="745.348,356.724 745.348,355.863 746.209,355.432 746.64,356.293 748.362,356.724 749.223,355.432 
		749.654,351.557 748.362,349.404 746.209,348.542 744.917,349.834 744.917,352.848 742.334,351.557 739.75,351.557 
		738.889,352.418 738.889,355.432 739.319,357.585 739.319,359.738 738.458,361.03 735.875,363.183 735.013,364.905 
		735.444,367.058 737.166,368.35 740.181,367.92 742.334,365.336 741.903,361.461 744.487,361.461 745.779,361.03 747.07,359.738 
		746.64,357.154 	"/>
	<polygon points="629.514,696.474 629.514,693.029 628.653,690.015 622.194,689.154 621.333,689.584 620.902,691.737 
		622.194,695.182 621.333,697.335 620.902,699.057 623.916,705.086 625.639,705.947 627.361,703.794 629.084,704.655 
		630.806,704.655 631.237,699.057 630.252,698.319 	"/>
	<polygon points="454.687,767.094 451.673,767.094 449.52,768.385 447.798,770.969 447.367,774.845 448.659,777.428 
		451.242,779.151 454.687,779.151 457.271,777.859 458.993,775.275 458.993,771.4 457.271,768.816 	"/>
	<polygon points="711.76,228.833 713.483,227.972 713.913,229.694 714.775,230.125 716.928,230.986 718.65,229.694 719.081,227.972 
		718.22,227.111 718.22,224.958 717.358,222.374 715.636,221.943 715.205,222.374 714.775,225.388 714.344,224.527 711.76,224.096 
		710.469,225.388 710.469,227.541 708.746,228.403 707.885,230.556 710.038,230.986 	"/>
	<polygon points="170.055,132.377 169.625,133.669 169.625,135.822 170.486,136.683 172.639,137.114 174.361,135.391 
		173.931,131.516 172.639,130.654 173.5,128.932 177.806,126.348 178.237,124.626 175.653,124.626 171.778,127.21 169.625,129.363 	
		"/>
	<polygon points="713.052,243.043 712.191,240.89 710.038,240.89 708.316,241.321 707.024,243.043 704.009,245.627 703.579,247.349 
		705.301,249.072 707.454,248.641 710.469,246.058 	"/>
	<polygon points="606.692,742.118 605.831,742.549 604.108,744.702 604.108,747.286 604.539,748.147 607.123,749.869 
		608.845,749.439 610.998,747.286 610.998,744.702 609.276,742.549 	"/>
	<polygon points="190.294,121.612 188.571,122.042 187.538,122.559 187.279,122.473 185.988,123.334 185.557,125.487 
		186.418,125.918 189.002,125.918 193.308,125.057 195.461,122.904 195.892,121.181 194.169,119.459 192.016,119.028 
		191.155,119.459 	"/>
	<polygon points="654.92,682.264 652.767,681.833 652.336,683.986 650.614,683.986 649.753,683.125 647.6,683.556 647.169,686.139 
		652.336,688.292 653.628,685.278 657.073,685.709 659.226,685.278 657.934,683.125 	"/>
	<polygon points="737.597,260.698 737.166,262.421 735.875,262.421 733.291,265.004 733.721,266.727 737.597,268.88 
		738.889,268.449 739.319,266.727 737.597,266.296 738.028,264.143 740.611,262.421 741.472,260.698 	"/>
	<polygon points="709.607,275.339 708.316,273.616 706.163,273.186 704.871,274.047 704.009,277.923 704.871,279.214 
		705.849,279.606 706.163,280.076 707.024,280.076 709.177,278.353 	"/>
	<polygon points="164.457,114.291 166.61,113.43 167.472,115.153 168.333,113.861 170.486,113.861 170.916,112.569 167.041,109.985 
		165.318,109.555 164.027,111.277 161.874,111.708 162.735,114.291 	"/>
	<polygon points="117.09,154.769 120.105,155.199 120.535,154.769 120.966,152.616 117.09,150.032 114.507,149.601 113.645,150.462 
		114.507,153.046 	"/>
	<polygon points="289.334,75.537 290.195,76.398 292.348,76.398 292.779,75.967 292.348,72.953 292.779,69.508 291.917,67.786 
		290.625,67.786 288.903,69.939 289.764,71.661 	"/>
	<polygon points="640.71,657.288 639.849,658.15 639.849,661.379 639.418,662.025 639.074,662.886 638.557,663.748 638.709,663.798 
		638.557,664.178 639.849,664.178 643.724,664.609 644.155,662.456 642.432,659.011 	"/>
	<polygon points="679.465,577.195 678.173,575.904 674.728,575.904 674.297,576.334 673.436,578.487 674.728,580.21 677.742,580.64 
		679.034,579.348 	"/>
	<polygon points="536.503,733.937 534.35,733.506 533.489,733.937 533.919,735.229 536.503,736.09 537.364,737.812 538.656,739.104 
		540.809,739.104 540.981,738.243 541.24,738.243 541.24,736.951 540.378,735.659 	"/>
	<polygon points="747.07,274.478 750.515,272.325 750.946,270.602 749.654,268.88 746.64,270.602 744.487,272.755 744.917,274.478 	
		"/>
	<polygon points="263.067,78.12 264.358,77.69 264.358,74.675 262.636,71.231 260.914,70.369 260.483,70.8 260.914,73.814 
		261.344,75.537 260.483,77.259 	"/>
	<polygon points="697.55,184.05 698.412,186.203 699.273,186.203 699.351,185.89 699.703,185.772 699.574,184.997 699.703,184.481 
		699.38,183.835 699.273,183.189 699.004,182.112 699.273,181.036 699.703,180.605 700.134,178.883 698.412,177.16 696.259,176.73 
		695.397,177.591 697.12,180.605 	"/>
	<polygon points="703.148,223.235 704.44,223.235 704.871,221.943 707.024,219.79 704.44,217.637 700.565,218.499 700.565,219.36 
		703.148,221.082 	"/>
	<polygon points="650.614,620.256 651.045,623.701 652.336,624.562 653.198,626.285 654.49,626.715 655.781,625.423 
		655.781,624.562 655.468,624.171 655.351,623.701 652.336,620.687 	"/>
	<polygon points="212.685,96.636 212.685,98.789 214.838,99.651 216.13,96.636 215.7,94.053 213.977,93.192 212.255,92.761 
		212.255,94.053 213.116,95.345 	"/>
	<polygon points="208.379,103.096 211.824,103.096 212.255,102.234 212.685,99.651 211.824,99.651 208.379,100.943 208.379,101.804 
		206.226,102.234 206.226,103.957 207.949,104.818 	"/>
	<polygon points="61.542,457.056 62.834,456.194 62.834,453.611 62.536,452.915 62.403,451.458 61.542,449.735 61.111,448.659 
		61.111,447.582 61.111,443.707 60.25,439.401 58.528,438.97 58.097,439.831 58.528,448.443 58.958,450.74 58.958,451.458 
		59.389,454.041 59.577,454.041 59.819,455.333 	"/>
	<polygon points="622.194,710.253 621.763,710.684 621.333,712.837 623.486,714.99 625.639,714.559 626.069,712.837 
		624.347,710.684 	"/>
	<polygon points="766.878,346.82 765.586,347.681 765.586,350.265 766.017,351.126 768.601,351.557 769.893,349.404 768.601,347.25 
			"/>
	<polygon points="630.806,162.95 631.237,163.381 634.682,163.811 635.112,162.95 635.112,162.089 634.682,161.658 634.251,160.366 
		632.098,159.075 630.806,159.936 	"/>
	<polygon points="557.172,729.2 556.741,731.353 558.464,733.506 560.617,733.076 561.047,730.922 560.186,729.2 	"/>
	<polygon points="87.809,539.732 86.517,540.594 86.087,542.747 87.378,543.608 89.531,544.038 90.393,543.177 90.393,540.594 
		89.531,540.163 	"/>
	<polygon points="316.031,68.647 316.031,60.896 314.309,60.465 314.309,69.508 315.601,69.508 	"/>
	<polygon points="714.775,539.302 713.913,540.163 714.344,543.177 716.928,543.608 717.789,542.747 717.789,540.594 
		716.928,539.302 	"/>
	<polygon points="747.932,278.784 749.223,277.492 749.223,275.77 744.056,275.77 743.625,277.061 746.209,279.214 	"/>
	<polygon points="61.972,261.99 62.834,261.129 62.834,258.976 61.972,258.115 59.389,258.115 58.958,258.545 58.528,260.698 
		59.819,261.99 	"/>
	<polygon points="602.386,667.192 603.678,667.192 604.539,666.331 604.539,664.178 606.692,661.164 607.123,659.011 605.4,657.288 
		603.678,656.858 602.386,658.15 601.955,662.456 602.386,662.886 603.247,665.039 602.386,665.47 	"/>
	<polygon points="253.593,707.67 252.301,710.253 252.301,712.406 255.746,712.406 255.746,711.545 255.746,708.961 255.316,708.1 	
		"/>
	<polygon points="667.408,181.036 667.408,178.883 665.685,178.021 663.532,180.605 663.102,182.758 664.824,183.189 	"/>
	<polygon points="638.557,159.505 639.418,160.366 639.849,160.797 641.141,161.228 642.002,161.658 642.248,161.597 
		643.724,162.089 645.877,163.811 648.461,164.242 648.461,162.95 645.877,159.075 643.294,157.783 642.002,156.491 
		642.432,152.616 640.71,149.171 638.126,148.74 636.835,149.601 636.404,152.616 638.988,156.491 	"/>
	<polygon points="733.721,199.121 735.444,197.829 735.013,195.246 732.43,194.815 731.568,195.676 731.999,198.691 	"/>
	<polygon points="239.814,88.024 240.244,84.579 239.383,81.565 238.522,81.565 238.091,84.149 237.661,87.163 237.23,89.316 
		238.952,89.316 	"/>
	<polygon points="558.033,70.369 559.325,69.078 558.894,66.924 556.741,66.063 555.45,66.924 555.45,69.508 555.88,69.939 	"/>
	<polygon points="701.426,606.046 700.134,608.199 703.148,609.06 704.009,610.783 704.205,610.822 704.44,611.213 707.885,611.213 
		710.469,609.06 710.038,606.907 707.454,605.185 704.009,604.754 702.287,605.185 	"/>
	<polygon points="755.682,559.11 755.252,559.54 756.113,563.846 756.974,564.708 758.697,564.277 758.697,561.263 757.405,559.54 	
		"/>
	<polygon points="728.716,241.832 728.554,241.751 727.262,243.043 726.832,245.196 728.554,245.627 729.415,244.766 
		731.999,240.89 731.138,240.46 729.846,240.89 	"/>
	<polygon points="55.083,499.686 53.791,501.408 54.222,503.561 56.375,503.992 57.666,502.7 57.236,500.547 	"/>
	<polygon points="748.362,281.367 750.085,283.09 752.238,283.09 752.668,280.937 751.807,279.645 748.362,279.645 	"/>
	<polygon points="735.013,592.697 734.583,595.281 735.875,595.281 738.028,592.697 738.458,589.683 737.166,589.683 	"/>
	<polygon points="126.994,596.573 126.133,597.003 125.272,598.726 125.702,600.448 126.994,600.879 129.147,599.587 
		128.717,597.434 	"/>
	<polygon points="738.889,485.476 738.458,486.337 739.319,490.212 740.181,491.074 741.472,490.643 741.472,487.629 
		740.611,485.476 	"/>
	<polygon points="692.814,633.605 688.077,633.605 688.077,635.327 688.465,635.543 688.508,635.758 693.675,638.342 
		694.019,638.169 694.536,638.342 696.689,636.619 696.259,634.897 	"/>
	<polygon points="582.578,116.444 583.009,116.014 583.439,113.861 581.286,112.569 579.994,113.43 579.564,115.583 
		580.425,116.444 	"/>
	<polygon points="684.632,573.32 683.771,574.181 683.771,576.334 686.785,576.765 687.216,576.334 687.646,574.612 686.785,573.32 
			"/>
	<polygon points="693.244,203.858 692.814,205.15 691.522,206.442 691.522,208.595 690.661,208.595 690.23,209.456 691.522,209.886 
		692.814,208.164 694.967,206.011 694.967,203.858 694.105,203.427 	"/>
	<polygon points="410.765,57.451 411.196,57.02 411.626,54.867 410.765,54.006 408.612,54.006 408.182,54.437 407.751,56.159 
		408.612,57.451 	"/>
	<polygon points="737.597,307.635 737.166,305.051 735.444,304.62 734.583,305.481 734.583,308.496 736.736,308.926 	"/>
	<polygon points="728.339,209.025 728.554,209.025 728.985,208.595 729.057,208.451 729.415,208.164 730.277,206.442 
		728.124,206.011 725.54,208.595 725.109,210.317 727.262,209.886 	"/>
	<polygon points="228.618,48.839 229.048,47.116 228.187,46.255 226.034,45.825 225.173,46.255 224.742,47.978 226.465,49.27 	"/>
	<polygon points="629.945,656.858 629.084,658.58 627.792,659.872 624.778,661.164 623.486,661.595 623.055,662.025 
		621.333,662.886 619.18,664.178 617.457,665.901 614.443,667.192 610.998,668.915 610.998,670.207 614.443,671.499 
		618.749,671.499 620.902,669.776 624.778,668.054 625.208,666.331 623.916,665.47 627.792,665.47 632.529,665.47 632.098,663.748 
		632.529,660.733 632.802,657.719 632.959,657.719 632.959,655.997 631.237,655.997 	"/>
	<polygon points="730.277,300.314 728.554,301.606 728.124,304.19 728.985,306.773 732.43,305.051 732.86,302.037 731.999,301.175 	
		"/>
	<polygon points="242.828,75.106 243.259,72.953 238.091,70.369 238.091,72.092 240.675,74.245 	"/>
	<polygon points="226.034,66.924 225.604,69.078 227.326,70.8 229.479,71.231 230.771,70.369 231.202,67.786 229.91,66.063 
		227.757,65.633 	"/>
	<polygon points="61.542,526.814 61.111,528.967 61.972,530.259 63.264,530.69 64.556,530.259 64.556,527.675 63.695,526.814 	"/>
	<polygon points="710.469,255.531 709.177,255.531 707.024,257.684 707.024,256.823 705.301,256.392 704.871,258.976 
		708.746,258.976 709.177,257.684 710.038,257.253 	"/>
	<polygon points="156.706,157.352 157.998,156.491 158.429,154.338 155.414,154.338 154.123,155.63 154.553,157.352 	"/>
	<polygon points="653.198,647.384 654.059,647.384 655.351,644.37 654.49,640.925 653.198,640.495 652.767,640.925 653.198,643.94 
		652.767,646.093 	"/>
	<polygon points="759.127,273.616 758.266,275.77 759.558,277.492 761.28,277.061 761.28,273.616 759.989,272.755 	"/>
	<polygon points="285.889,46.686 286.75,43.672 285.028,43.241 283.305,44.533 282.875,46.255 283.736,47.116 	"/>
	<polygon points="586.023,710.684 586.453,708.531 584.731,707.67 583.009,708.961 583.009,711.115 583.439,711.545 	"/>
	<polygon points="268.664,68.647 268.664,65.633 266.942,64.771 266.081,65.633 265.65,67.355 266.942,69.078 	"/>
	<polygon points="666.116,630.16 663.963,629.73 662.24,630.16 661.379,631.021 660.949,633.174 662.671,632.744 665.685,631.452 	
		"/>
	<polygon points="648.892,600.448 648.03,600.879 648.03,601.74 650.614,603.462 652.336,603.893 652.767,602.171 651.475,600.448 	
		"/>
	<polygon points="710.469,598.726 710.469,604.324 711.33,604.754 712.191,601.74 712.191,597.865 710.899,597.865 	"/>
	<polygon points="147.233,103.526 148.094,102.234 147.664,100.512 145.941,99.651 144.649,100.512 145.08,103.096 	"/>
	<polygon points="725.109,252.947 724.248,251.225 722.526,250.794 721.664,251.655 721.664,253.808 723.387,254.67 	"/>
	<polygon points="644.155,656.858 643.294,657.719 643.724,659.442 646.739,659.442 647.6,658.58 646.739,656.858 	"/>
	<polygon points="739.319,382.13 740.181,380.407 738.028,379.977 735.875,380.838 735.444,382.56 737.166,382.991 	"/>
	<polygon points="657.934,187.495 657.934,190.509 659.657,191.37 660.518,189.648 660.087,187.064 658.796,186.634 	"/>
	<polygon points="77.905,262.851 80.919,262.421 80.489,260.268 77.905,259.837 77.044,261.129 	"/>
	<polygon points="153.692,108.263 153.692,106.54 152.4,103.957 150.678,103.957 150.247,105.679 151.539,107.402 	"/>
	<polygon points="723.387,591.836 722.526,593.558 723.817,593.989 726.401,591.836 726.832,589.683 725.54,589.683 	"/>
	<polygon points="710.899,501.408 710.899,499.686 710.038,498.394 707.885,498.394 707.024,499.255 707.885,500.978 	"/>
	<polygon points="101.158,186.203 101.588,184.481 100.297,184.481 99.866,184.911 98.144,187.495 98.144,190.078 99.005,190.078 	
		"/>
	<polygon points="677.742,148.309 677.742,144.434 677.312,143.142 676.02,142.281 675.589,143.142 676.02,147.879 	"/>
	<polygon points="117.09,122.904 116.229,121.181 114.076,121.181 113.645,121.612 113.645,123.765 115.368,124.626 	"/>
	<polygon points="189.002,100.081 190.294,100.512 192.016,100.943 194.169,99.651 195.461,96.636 195.461,92.761 195.03,90.608 
		194.169,87.594 192.016,87.594 187.71,88.455 186.418,90.177 186.849,94.914 185.557,96.206 185.126,97.928 186.849,99.651 	"/>
	<polygon points="52.499,289.549 52.499,287.396 52.068,286.965 49.915,286.965 49.485,287.396 49.485,289.549 50.777,290.41 	"/>
	<polygon points="175.653,122.473 177.806,123.334 179.529,122.904 179.529,121.612 178.237,120.751 176.084,120.32 
		175.222,121.612 	"/>
	<polygon points="228.618,79.412 227.757,80.273 228.187,82.426 230.34,82.426 231.202,81.135 230.771,79.412 	"/>
	<polygon points="584.3,702.072 582.578,700.349 581.717,700.78 581.286,702.933 582.147,703.794 584.3,704.225 	"/>
	<polygon points="605.4,696.904 605.831,694.751 604.108,693.89 603.678,692.168 602.817,691.737 601.955,693.46 603.678,694.321 
		603.678,696.474 	"/>
	<polygon points="668.269,680.972 666.547,683.556 666.977,684.847 669.13,686.139 670.853,685.709 671.714,683.986 
		670.422,681.403 	"/>
	<polygon points="670.853,662.456 670.422,664.178 671.283,665.901 672.575,666.331 673.436,665.039 673.006,662.886 	"/>
	<polygon points="697.55,606.046 696.259,604.324 694.105,604.324 693.244,605.615 694.105,606.907 697.12,606.907 	"/>
	<polygon points="629.084,139.267 630.806,136.683 631.237,134.53 630.375,133.238 627.792,133.238 627.361,133.669 
		627.361,137.975 627.792,138.836 	"/>
	<polygon points="350.48,747.716 350.049,749.869 352.202,751.592 353.494,750.3 352.633,748.577 	"/>
	<polygon points="387.512,730.492 386.651,730.922 387.512,732.645 390.957,733.076 390.527,730.922 	"/>
	<polygon points="738.028,184.911 738.028,182.758 737.597,182.327 735.444,182.327 734.583,183.619 735.875,185.342 	"/>
	<polygon points="199.767,120.751 201.059,119.889 200.628,117.736 198.906,117.736 198.045,118.167 197.614,120.32 	"/>
	<polygon points="105.033,128.932 105.033,126.779 103.311,125.918 102.88,126.348 102.45,129.363 104.172,129.793 	"/>
	<polygon points="216.991,76.828 217.484,76.951 218.714,77.69 221.298,78.12 221.728,75.967 220.867,74.675 218.714,73.384 
		215.7,73.384 215.269,75.106 216.561,76.398 	"/>
	<polygon points="627.792,687.862 628.222,686.139 627.361,685.278 624.347,684.847 623.486,685.709 623.916,687 625.208,686.57 	
		"/>
	<polygon points="780.658,385.575 778.935,385.144 778.074,386.005 778.505,388.158 780.227,388.589 781.088,387.728 	"/>
	<polygon points="194.6,107.402 194.169,109.555 195.892,109.555 197.183,108.693 197.614,106.54 195.461,106.54 	"/>
	<polygon points="647.169,641.787 648.461,640.925 648.892,640.064 649.322,639.634 649.236,639.375 649.753,638.342 
		651.906,636.189 654.059,635.758 654.49,636.619 656.212,637.05 656.643,632.744 656.556,632.227 656.643,631.021 656.298,630.677 
		656.212,630.16 654.059,628.868 648.892,628.438 648.03,628.868 648.03,628.954 646.739,629.73 645.016,633.174 644.586,636.189 
		646.739,636.619 646.739,637.05 644.586,640.064 643.724,642.217 645.447,643.94 646.739,643.509 	"/>
	<polygon points="716.928,257.253 716.067,258.976 716.928,259.406 719.942,258.976 720.373,257.253 718.22,256.823 	"/>
	<polygon points="715.636,218.499 717.358,218.499 717.358,216.346 716.497,215.484 714.344,215.484 713.913,216.776 
		715.205,217.207 	"/>
	<polygon points="532.197,85.871 533.058,85.871 533.489,83.288 531.766,81.565 531.336,81.996 530.905,84.579 532.197,85.01 	"/>
	<polygon points="425.836,761.496 425.406,761.926 424.975,764.079 427.128,764.51 427.99,763.218 427.559,761.926 	"/>
	<polygon points="664.824,689.154 664.824,691.307 665.255,691.737 667.408,691.307 667.408,689.154 665.255,688.723 	"/>
	<polygon points="678.604,556.957 677.742,557.818 678.173,559.54 680.326,559.971 681.187,559.11 680.326,557.387 	"/>
	<polygon points="434.879,48.408 434.449,46.255 432.296,46.255 431.865,47.978 433.157,49.27 	"/>
	<polygon points="669.561,669.776 668.269,669.776 668.269,674.513 669.13,674.513 669.991,672.79 	"/>
	<polygon points="656.212,613.366 656.212,611.644 655.351,610.352 654.059,609.922 653.628,612.936 654.92,613.797 	"/>
	<polygon points="741.472,281.367 740.611,279.645 737.597,279.645 737.597,281.367 739.319,281.798 	"/>
	<polygon points="143.788,118.597 143.788,116.014 142.066,116.014 141.204,117.306 142.066,119.459 	"/>
	<polygon points="512.389,755.898 511.958,756.759 512.819,758.481 514.972,758.481 514.972,756.328 514.542,755.898 	"/>
	<polygon points="697.12,663.748 697.55,665.901 699.703,666.331 699.703,663.748 697.981,663.317 	"/>
	<polygon points="626.069,651.26 625.208,651.26 623.486,652.982 624.347,654.705 626.069,655.135 	"/>
	<polygon points="778.074,393.326 777.213,394.187 777.643,395.909 779.366,396.34 780.227,395.048 779.797,393.756 	"/>
	<polygon points="736.736,512.173 737.597,513.035 739.319,512.604 739.319,510.451 737.166,510.02 	"/>
	<polygon points="773.337,384.713 773.337,386.436 774.629,388.158 775.921,388.158 775.921,386.005 775.06,385.144 	"/>
	<polygon points="59.819,306.343 60.25,304.19 58.528,303.759 57.666,304.62 58.097,306.773 	"/>
	<polygon points="673.436,171.132 673.006,171.562 672.575,171.993 672.719,172.711 672.575,173.285 673.436,175.438 
		675.159,178.883 676.02,178.883 676.881,176.299 677.742,176.73 679.034,179.744 679.034,184.911 680.757,184.481 682.048,179.313 
		684.632,178.452 684.632,179.313 686.355,181.036 686.355,178.883 684.632,175.007 683.34,173.715 683.112,173.867 682.91,173.715 
		682.694,174.146 682.048,174.577 681.187,177.16 679.895,176.73 678.604,174.146 677.312,173.715 676.451,175.438 675.589,175.438 
		674.297,171.562 	"/>
	<polygon points="589.145,725.432 589.037,724.894 588.176,723.889 588.176,723.602 586.453,721.88 582.147,721.88 580.855,722.741 
		580.855,724.894 582.721,726.138 582.578,726.186 584.731,727.478 589.037,727.478 589.468,727.047 589.324,726.329 
		589.468,725.755 	"/>
	<polygon points="598.08,698.627 597.649,699.919 598.51,700.349 601.094,700.349 601.094,698.627 598.941,698.196 	"/>
	<polygon points="686.355,589.683 686.355,591.405 688.077,593.989 689.369,593.989 689.369,593.128 688.077,590.544 	"/>
	<polygon points="750.085,391.603 748.793,392.895 750.515,393.326 754.821,391.173 753.099,390.742 	"/>
	<polygon points="728.554,258.545 728.124,256.823 725.971,256.392 725.54,257.253 726.401,258.976 	"/>
	<polygon points="739.319,312.802 738.889,311.079 736.736,311.079 736.305,312.802 737.597,313.663 	"/>
	<polygon points="79.627,234 79.197,236.584 80.058,236.584 81.35,234.431 81.78,232.278 80.919,232.278 	"/>
	<polygon points="648.461,185.772 649.322,186.634 651.475,187.064 651.475,186.203 650.183,184.05 648.461,184.05 	"/>
	<polygon points="147.233,111.708 147.664,113.861 149.817,113.861 149.817,112.138 148.094,111.277 	"/>
	<polygon points="293.64,38.504 294.07,36.782 292.348,35.921 291.056,36.782 291.487,38.504 	"/>
	<polygon points="114.076,613.366 116.229,613.366 116.66,612.936 117.09,611.213 114.507,611.213 	"/>
	<polygon points="778.074,373.948 775.921,373.518 775.49,375.24 776.352,376.101 777.643,376.101 	"/>
	<polygon points="80.919,168.548 81.78,167.687 81.35,165.964 79.197,165.964 78.766,166.826 79.197,168.117 	"/>
	<polygon points="681.187,151.324 681.187,147.448 679.895,147.018 679.465,149.171 680.326,151.324 	"/>
	<polygon points="272.54,708.531 272.971,710.253 275.124,710.253 275.554,708.531 273.401,707.67 	"/>
	<polygon points="710.038,286.104 708.316,285.673 707.885,286.104 707.454,287.827 709.607,288.257 	"/>
	<polygon points="396.555,754.175 396.986,755.467 398.708,755.898 399.139,753.745 396.986,753.314 	"/>
	<polygon points="77.044,191.37 77.474,189.217 76.613,189.217 75.321,190.509 74.891,192.662 76.183,192.662 	"/>
	<polygon points="216.13,93.622 218.283,93.622 218.714,91.469 217.422,90.608 216.561,91.469 	"/>
	<polygon points="248.426,80.704 247.995,78.981 245.412,78.12 245.412,79.843 246.273,80.704 	"/>
	<polygon points="620.902,684.847 621.333,682.264 620.041,681.833 619.61,682.264 619.18,684.417 	"/>
	<polygon points="108.048,184.481 110.201,184.05 110.201,181.897 108.909,181.466 108.478,181.897 	"/>
	<polygon points="658.796,598.295 658.365,599.156 658.796,600.448 660.518,600.448 660.949,598.726 	"/>
	<polygon points="148.955,148.74 147.664,150.032 148.094,151.754 149.386,151.754 150.247,150.032 149.817,148.74 	"/>
	<polygon points="653.628,144.865 653.628,143.142 651.475,142.712 651.045,143.142 651.475,144.865 	"/>
	<polygon points="533.058,757.19 532.627,758.481 534.35,761.496 536.503,761.926 536.503,760.634 534.78,758.051 	"/>
	<polygon points="563.201,733.076 562.77,734.798 564.923,735.229 564.923,732.645 563.631,732.645 	"/>
	<polygon points="583.439,699.057 583.439,699.919 586.023,700.349 588.606,699.919 590.759,698.627 590.759,694.321 
		588.176,692.168 586.023,690.015 583.87,689.584 578.702,690.015 577.841,690.445 576.119,694.751 578.272,698.196 
		579.564,698.412 579.564,698.627 	"/>
	<polygon points="228.187,679.68 226.465,679.25 226.034,679.68 226.465,681.833 228.187,681.833 	"/>
	<polygon points="629.945,649.538 628.653,649.538 628.222,649.968 627.792,652.552 629.514,652.121 	"/>
	<polygon points="645.877,646.093 645.447,644.801 642.432,644.37 643.294,646.523 645.447,646.523 	"/>
	<polygon points="98.144,576.334 99.435,576.765 100.727,574.612 98.574,574.181 	"/>
	<polygon points="772.907,370.934 770.754,370.934 771.184,373.087 773.337,372.656 	"/>
	<polygon points="672.144,190.078 671.714,188.356 669.991,188.356 669.561,189.217 670.422,190.94 	"/>
	<polygon points="102.88,181.466 103.311,181.036 105.464,181.036 105.895,181.466 108.909,181.466 109.339,179.744 
		108.048,178.452 103.741,175.868 100.297,175.438 99.005,176.73 99.005,179.744 99.866,181.036 	"/>
	<polygon points="674.297,166.395 675.159,165.964 673.436,163.381 671.714,162.52 672.575,164.673 	"/>
	<polygon points="187.71,679.68 189.863,680.111 190.294,678.388 188.141,677.958 	"/>
	<polygon points="708.746,657.719 709.607,659.442 710.899,659.011 711.33,657.288 709.177,656.858 	"/>
	<rect x="712.622" y="516.049" width="3.445" height="1.292"/>
	<polygon points="693.244,175.868 691.522,175.438 691.522,178.021 693.244,178.021 	"/>
	<polygon points="168.763,121.612 167.472,121.181 167.041,122.042 166.61,124.195 168.333,123.765 	"/>
	<polygon points="698.842,269.741 700.134,270.172 701.856,269.31 701.856,268.019 699.703,268.019 	"/>
	<polygon points="143.788,112.569 143.357,109.985 142.066,109.985 141.635,110.847 142.066,112.569 	"/>
	<polygon points="332.825,56.59 331.533,56.159 331.103,56.59 330.672,58.312 332.395,58.743 	"/>
	<polygon points="491.289,38.074 489.567,37.643 489.136,38.074 488.705,39.796 491.289,39.366 	"/>
	<polygon points="710.469,516.049 710.469,514.757 707.454,514.757 707.024,516.049 	"/>
	<polygon points="724.679,434.233 722.956,433.803 723.387,435.956 725.109,436.386 	"/>
	<polygon points="652.336,184.481 652.767,186.634 654.059,186.634 654.49,184.911 652.767,184.05 	"/>
	<polygon points="638.557,668.915 640.279,669.346 640.71,667.192 638.557,667.192 	"/>
	<polygon points="108.478,149.601 106.325,149.171 106.325,150.893 108.048,151.324 	"/>
	<polygon points="336.27,742.118 336.27,743.841 337.562,744.271 338.423,742.549 337.131,741.688 	"/>
	<polygon points="668.269,158.213 667.838,155.63 666.977,155.63 666.547,156.06 666.977,158.213 	"/>
	<polygon points="214.408,80.273 212.255,79.412 212.255,81.135 213.977,81.565 	"/>
	<polygon points="298.376,66.063 296.223,66.063 295.362,67.355 297.515,67.786 	"/>
	<polygon points="589.468,712.406 589.037,712.837 589.468,714.559 591.19,714.129 590.759,712.406 	"/>
	<polygon points="609.706,676.666 609.276,678.388 610.998,678.388 611.859,677.096 610.567,676.235 	"/>
	<polygon points="699.703,603.462 700.995,603.893 701.426,601.74 700.134,601.309 	"/>
	<polygon points="736.305,253.808 735.013,253.378 734.152,253.808 734.152,255.1 736.305,255.531 	"/>
	<polygon points="134.315,160.366 135.176,160.797 136.468,160.366 136.468,159.075 134.315,158.644 	"/>
	<polygon points="207.949,106.971 209.671,106.54 209.671,105.249 207.949,104.818 207.518,105.679 	"/>
	<polygon points="279.86,718.435 281.583,719.296 282.013,717.574 280.291,717.143 	"/>
	<polygon points="730.707,568.583 731.138,569.875 732.43,569.875 732.86,568.153 731.138,567.722 	"/>
	<polygon points="652.767,190.509 653.198,191.801 655.351,191.801 654.92,190.078 653.198,190.078 	"/>
	<polygon points="627.361,151.324 625.639,150.893 625.208,152.185 626.931,153.046 	"/>
	<polygon points="156.706,151.324 157.568,151.754 158.429,151.324 158.859,149.601 157.137,149.601 	"/>
	<polygon points="123.119,150.032 121.827,149.601 121.396,150.032 121.396,152.185 122.688,151.754 	"/>
	<polygon points="322.06,50.131 322.06,47.547 321.199,47.116 320.768,50.992 321.629,50.992 	"/>
	<polygon points="579.994,733.937 581.286,734.367 581.286,736.52 581.717,736.52 582.578,733.506 579.994,733.506 	"/>
	<polygon points="701.856,637.05 703.579,637.48 703.579,635.758 701.856,635.327 	"/>
	<polygon points="697.981,519.063 700.134,519.494 700.134,517.771 698.412,517.771 	"/>
	<polygon points="717.358,497.102 719.081,497.963 719.511,496.241 717.789,495.81 	"/>
	<polygon points="742.334,247.349 740.611,247.349 740.181,248.641 742.334,249.072 	"/>
	<polygon points="597.649,131.946 596.788,131.516 596.357,131.946 595.927,134.53 597.219,134.099 	"/>
	<polygon points="193.739,103.526 191.586,103.526 191.586,104.818 193.308,105.249 	"/>
	<polygon points="338.854,62.618 337.992,62.618 337.131,63.049 336.701,64.771 338.423,64.341 	"/>
	<polygon points="671.714,626.715 673.006,627.146 673.436,624.993 671.714,624.993 	"/>
	<polygon points="750.515,562.985 751.807,563.416 752.238,561.263 750.946,561.263 	"/>
	<polygon points="657.934,179.313 657.934,181.466 658.796,181.897 659.226,178.883 658.365,178.883 	"/>
	<polygon points="95.991,175.438 93.837,175.007 93.837,176.299 95.56,176.73 	"/>
	<polygon points="196.322,83.288 196.322,81.135 195.461,80.704 194.6,81.996 195.03,83.288 	"/>
	<polygon points="332.825,66.494 334.978,66.063 334.978,65.202 333.256,64.771 332.825,65.202 	"/>
	<polygon points="157.137,655.566 158.859,655.997 159.29,654.705 157.137,654.274 	"/>
	<polygon points="101.588,614.228 103.311,614.658 103.311,613.366 101.158,612.936 	"/>
	<polygon points="678.604,592.267 679.895,592.697 680.326,590.975 679.034,590.544 	"/>
	<polygon points="715.636,251.225 716.928,251.655 717.789,249.933 716.497,249.502 	"/>
	<polygon points="697.55,201.705 697.981,202.997 700.134,203.858 699.703,202.566 	"/>
	<polygon points="583.87,731.784 585.162,732.214 585.592,730.492 584.3,730.061 	"/>
	<polygon points="759.127,328.304 760.85,328.734 760.85,327.012 759.127,327.012 	"/>
	<polygon points="715.636,267.588 713.913,267.157 713.052,267.588 713.052,268.449 715.636,268.449 	"/>
	<polygon points="688.508,170.27 688.077,167.256 687.216,166.826 686.785,167.256 687.216,169.409 	"/>
	<polygon points="658.365,138.836 656.643,138.405 656.643,140.128 658.365,140.128 	"/>
	<polygon points="327.227,754.606 327.227,755.898 328.519,756.328 328.95,754.606 328.088,754.175 	"/>
	<polygon points="570.521,717.143 572.243,717.574 572.243,715.851 570.951,715.851 	"/>
	<polygon points="160.151,638.342 160.151,640.064 161.874,640.064 161.443,638.772 	"/>
	<polygon points="687.216,627.146 685.493,627.146 685.924,628.438 687.646,628.438 	"/>
	<polygon points="687.216,533.704 688.938,533.704 688.938,531.981 687.646,531.981 	"/>
	<polygon points="735.444,463.084 734.152,463.084 733.721,464.376 735.444,464.807 	"/>
	<polygon points="175.222,116.014 175.222,115.153 173.5,114.291 173.069,114.722 173.5,116.014 	"/>
	<polygon points="609.706,720.157 610.998,720.588 611.429,718.865 610.137,718.865 	"/>
	<polygon points="642.002,649.538 643.294,649.968 643.724,648.246 642.002,648.246 	"/>
	<polygon points="748.362,397.632 749.654,398.062 750.085,396.34 748.793,396.34 	"/>
	<polygon points="665.685,160.366 664.824,160.366 663.963,162.089 665.255,162.089 	"/>
	<polygon points="619.61,128.501 618.318,128.071 617.888,129.363 619.61,129.793 	"/>
	<polygon points="234.646,92.761 232.924,92.33 232.924,93.622 234.216,94.053 	"/>
	<polygon points="501.624,70.369 500.332,69.939 499.901,71.661 501.193,71.661 	"/>
	<rect x="227.757" y="687.862" width="1.292" height="1.722"/>
	<rect x="171.347" y="649.107" width="1.722" height="1.292"/>
	<polygon points="670.853,196.107 669.561,196.107 669.13,197.829 669.991,197.829 	"/>
	<polygon points="134.315,133.238 133.453,132.808 133.023,134.53 134.315,134.961 	"/>
	<polygon points="165.318,132.808 166.61,133.238 167.041,131.946 165.318,131.516 	"/>
	<rect x="201.239" y="105.429" transform="matrix(0.3162 -0.9487 0.9487 0.3162 37.4028 264.1133)" width="1.362" height="1.362"/>
	<polygon points="272.54,66.063 272.54,64.341 270.818,64.341 271.248,65.633 	"/>
	<polygon points="463.299,59.604 462.008,59.604 462.008,60.896 462.869,61.757 	"/>
	<polygon points="366.843,738.673 367.704,738.673 368.135,736.951 366.843,736.951 	"/>
	<polygon points="651.906,675.805 652.767,676.235 652.767,673.652 651.906,673.652 	"/>
	<polygon points="153.261,655.566 154.984,655.566 154.984,654.705 153.261,654.274 	"/>
	<polygon points="710.899,503.131 712.191,503.561 712.191,501.839 710.899,501.839 	"/>
	<polygon points="112.354,182.327 114.076,182.327 114.076,181.036 112.784,181.036 	"/>
	<polygon points="576.119,91.039 574.827,91.039 574.827,92.33 576.119,92.761 	"/>
	<polygon points="465.452,66.924 465.883,65.633 464.591,65.202 464.161,65.633 464.591,66.924 	"/>
	<polygon points="342.729,725.755 344.021,726.186 344.452,724.894 342.729,724.894 	"/>
	<polygon points="615.735,718.004 617.027,718.435 617.027,717.143 615.735,716.712 	"/>
	<polygon points="588.606,717.574 590.329,718.004 590.329,717.143 588.606,716.712 	"/>
	<polygon points="173.5,652.552 174.792,652.982 175.222,651.691 173.5,651.691 	"/>
	<polygon points="682.91,599.156 684.632,599.156 683.34,597.865 	"/>
	<rect x="722.526" y="424.329" width="0.861" height="2.153"/>
	<polygon points="746.64,284.382 745.779,283.951 745.348,285.673 746.64,285.673 	"/>
	<polygon points="714.344,239.168 713.052,238.737 712.622,240.029 714.344,240.029 	"/>
	<polygon points="719.081,236.154 720.373,236.154 720.803,235.292 719.081,234.862 	"/>
	<polygon points="100.727,207.303 102.019,207.303 102.019,206.011 101.158,205.58 	"/>
	<polygon points="104.172,116.444 102.88,116.444 102.88,117.736 103.741,118.167 	"/>
	<polygon points="551.574,87.594 550.282,87.594 550.282,88.885 551.143,89.316 	"/>
	<polygon points="505.93,75.967 504.207,75.537 504.207,76.398 505.93,76.828 	"/>
	<polygon points="637.265,664.178 636.835,665.47 638.126,665.47 638.557,664.609 	"/>
	<polygon points="725.109,299.884 725.54,298.161 724.679,298.161 724.248,299.453 	"/>
	<polygon points="53.36,243.043 52.499,243.043 52.068,244.335 52.93,244.766 	"/>
	<polygon points="716.497,240.029 718.22,240.46 718.22,239.598 716.928,239.168 	"/>
	<polygon points="343.16,21.28 342.298,20.849 340.576,22.141 341.437,22.572 	"/>
	<polygon points="686.785,638.772 688.077,638.772 688.077,637.911 686.785,637.48 	"/>
	<polygon points="704.871,575.904 703.579,575.904 703.579,577.195 704.44,577.195 	"/>
	<polygon points="62.834,532.843 64.126,533.273 64.556,532.412 63.264,531.981 	"/>
	<polygon points="730.277,248.641 729.846,249.933 730.707,250.364 731.138,249.072 	"/>
	<rect x="688.938" y="156.491" width="0.861" height="1.722"/>
	<polygon points="343.16,63.48 344.452,63.48 344.452,62.618 343.16,62.188 	"/>
	<polygon points="724.679,568.583 725.109,567.722 723.817,567.291 723.817,568.583 	"/>
	<polygon points="94.699,543.608 95.56,543.608 95.991,542.747 94.699,542.316 	"/>
	<polygon points="108.048,196.968 108.478,195.246 107.617,195.246 	"/>
	<polygon points="619.18,145.726 619.61,144.434 618.318,144.434 618.318,145.295 	"/>
	<polygon points="159.721,126.779 158.859,125.918 159.29,128.071 	"/>
	<polygon points="162.304,122.473 161.012,122.042 161.012,123.334 161.874,123.334 	"/>
	<polygon points="243.689,68.216 242.397,67.786 242.397,68.647 243.689,69.078 	"/>
	<polygon points="647.6,674.082 646.739,673.652 647.169,675.374 	"/>
	<polygon points="613.151,653.844 612.721,654.274 613.582,655.135 614.012,653.844 	"/>
	<polygon points="164.888,644.37 165.749,643.509 164.457,643.078 	"/>
	<rect x="18.912" y="468.251" width="0.861" height="1.292"/>
	<rect x="734.152" y="271.033" width="1.292" height="0.861"/>
	<rect x="51.638" y="264.143" width="1.292" height="0.861"/>
	<rect x="746.209" y="240.029" width="1.292" height="0.861"/>
	<polygon points="132.592,185.772 131.731,185.772 130.87,186.203 132.592,186.634 	"/>
	<polygon points="155.414,138.405 154.123,137.975 154.553,139.267 	"/>
	<polygon points="675.589,587.53 676.881,587.961 676.881,587.099 676.02,587.099 	"/>
	<polygon points="753.099,240.89 753.099,241.751 754.391,241.321 	"/>
	<polygon points="667.408,196.968 666.547,196.968 666.977,198.26 	"/>
	<polygon points="90.393,125.487 90.393,126.348 91.684,125.918 	"/>
	<polygon points="575.688,712.406 576.98,712.406 575.688,711.976 	"/>
	<rect x="205.365" y="692.168" width="0.861" height="0.861"/>
	<rect x="613.151" y="686.57" width="0.861" height="0.861"/>
	<rect x="597.649" y="669.346" width="0.861" height="0.861"/>
	<rect x="665.255" y="662.456" width="0.861" height="0.861"/>
	<rect x="51.638" y="456.194" width="0.861" height="0.861"/>
	<polygon points="156.706,108.263 156.276,108.693 157.568,109.124 	"/>
	<polygon points="607.123,689.154 607.984,689.584 607.553,688.723 	"/>
	<polygon points="619.61,676.235 619.18,676.666 620.041,677.096 	"/>
	<polygon points="159.29,649.968 160.151,650.399 159.721,649.538 	"/>
	<polygon points="746.64,291.702 746.209,292.133 747.07,292.563 	"/>
	<polygon points="702.718,265.004 701.856,264.574 701.856,265.435 	"/>
	<polygon points="675.159,188.356 674.728,187.495 674.297,187.925 	"/>
	<polygon points="161.874,125.487 162.304,124.626 161.443,124.626 	"/>
	<polygon points="337.131,34.629 336.701,35.059 337.562,35.49 	"/>
	<polygon points="299.238,25.155 299.238,26.017 300.099,26.017 	"/>
</g>
</svg>
