<svg width="660" height="715" viewBox="0 0 660 715" fill="none" xmlns="http://www.w3.org/2000/svg">
<path d="M617.949 441.779L268.738 643.044C420.086 680.724 574.964 591.461 617.949 441.779Z" fill="black"/>
<path d="M414.615 84.6769C260.742 43.4892 102.712 134.569 61.5073 288.189C58.5894 299.067 56.2109 309.914 54.7022 320.816L446.323 95.1076C436.231 91.1697 425.512 87.5936 414.615 84.6769Z" fill="black"/>
<path d="M516.337 54.7548L124.543 280.563C114.662 346.557 128.37 411.797 160.096 466.652L659.999 178.535C628.273 123.68 578.529 79.2094 516.337 54.7548Z" fill="black"/>
<path d="M540.12 247.628L40.2168 535.745C77.1998 599.69 138.608 649.837 215.678 670.551C217.001 670.907 218.324 671.263 219.526 671.409L568.159 470.475C568.512 469.154 568.865 467.832 569.339 466.72C589.694 389.856 577.103 311.573 540.12 247.628Z" fill="black"/>
</svg>
