<?xml version="1.0" encoding="UTF-8"?>
<svg xmlns="http://www.w3.org/2000/svg"
    xmlns:xlink="http://www.w3.org/1999/xlink" width="0" height="0">


    <symbol id="arrow-right" viewBox="0 0 16 16">
        <path fill-rule="evenodd" clip-rule="evenodd" d="M8.53033 13.5303L14.0607 7.99995L8.53033 2.46962L7.46967 3.53027L11.1893 7.24994L2.5 7.24994L2.5 8.74994L11.1893 8.74994L7.46967 12.4696L8.53033 13.5303Z"/>
    </symbol>


    <symbol id="burger" viewBox="0 0 40 40">
        <path d="M9.5 12.5C9.5 11.6703 10.1703 11 11 11H29C29.8297 11 30.5 11.6703 30.5 12.5C30.5 13.3297 29.8297 14 29 14H11C10.1703 14 9.5 13.3297 9.5 12.5ZM9.5 20C9.5 19.1703 10.1703 18.5 11 18.5H29C29.8297 18.5 30.5 19.1703 30.5 20C30.5 20.8297 29.8297 21.5 29 21.5H11C10.1703 21.5 9.5 20.8297 9.5 20ZM30.5 27.5C30.5 28.3297 29.8297 29 29 29H11C10.1703 29 9.5 28.3297 9.5 27.5C9.5 26.6703 10.1703 26 11 26H29C29.8297 26 30.5 26.6703 30.5 27.5Z"/>
    </symbol>

    <symbol id="cross" viewBox="0 0 40 40">
        <path d="M29.4125 13.4125C30.1938 12.6313 30.1938 11.3625 29.4125 10.5813C28.6313 9.80005 27.3625 9.80005 26.5813 10.5813L20 17.1688L13.4125 10.5875C12.6313 9.8063 11.3625 9.8063 10.5813 10.5875C9.80005 11.3688 9.80005 12.6375 10.5813 13.4188L17.1688 20L10.5875 26.5875C9.8063 27.3688 9.8063 28.6376 10.5875 29.4188C11.3688 30.2001 12.6375 30.2001 13.4188 29.4188L20 22.8313L26.5875 29.4125C27.3688 30.1938 28.6376 30.1938 29.4188 29.4125C30.2001 28.6313 30.2001 27.3625 29.4188 26.5813L22.8313 20L29.4125 13.4125Z"/>
    </symbol>

    <symbol id="x" viewBox="0 0 12 10">
        <path d="M8.71938 0H10.417L6.70814 4.23596L11.0714 10H7.6549L4.97914 6.50405L1.91737 10H0.218596L4.18561 5.46924L0 0H3.50305L5.92181 3.19534L8.71938 0ZM8.12351 8.98457H9.06426L2.99195 0.962124H1.98254L8.12351 8.98457Z"/>
    </symbol>


    <symbol id="envelope" viewBox="0 0 40 40">        <!--!Font Awesome Free 6.7.2 by @fontawesome - https://fontawesome.com License - https://fontawesome.com/license/free Copyright 2025 Fonticons, Inc.-->
        <path d="M48 64C21.5 64 0 85.5 0 112c0 15.1 7.1 29.3 19.2 38.4L236.8 313.6c11.4 8.5 27 8.5 38.4 0L492.8 150.4c12.1-9.1 19.2-23.3 19.2-38.4c0-26.5-21.5-48-48-48L48 64zM0 176L0 384c0 35.3 28.7 64 64 64l384 0c35.3 0 64-28.7 64-64l0-208L294.4 339.2c-22.8 17.1-54 17.1-76.8 0L0 176z"/>
    </symbol>

    <symbol id="github" viewBox="0 0 496 512">        <!--!Font Awesome Free 6.7.2 by @fontawesome - https://fontawesome.com License - https://fontawesome.com/license/free Copyright 2025 Fonticons, Inc.-->
        <path d="M165.9 397.4c0 2-2.3 3.6-5.2 3.6-3.3 .3-5.6-1.3-5.6-3.6 0-2 2.3-3.6 5.2-3.6 3-.3 5.6 1.3 5.6 3.6zm-31.1-4.5c-.7 2 1.3 4.3 4.3 4.9 2.6 1 5.6 0 6.2-2s-1.3-4.3-4.3-5.2c-2.6-.7-5.5 .3-6.2 2.3zm44.2-1.7c-2.9 .7-4.9 2.6-4.6 4.9 .3 2 2.9 3.3 5.9 2.6 2.9-.7 4.9-2.6 4.6-4.6-.3-1.9-3-3.2-5.9-2.9zM244.8 8C106.1 8 0 113.3 0 252c0 110.9 69.8 205.8 169.5 239.2 12.8 2.3 17.3-5.6 17.3-12.1 0-6.2-.3-40.4-.3-61.4 0 0-70 15-84.7-29.8 0 0-11.4-29.1-27.8-36.6 0 0-22.9-15.7 1.6-15.4 0 0 24.9 2 38.6 25.8 21.9 38.6 58.6 27.5 72.9 20.9 2.3-16 8.8-27.1 16-33.7-55.9-6.2-112.3-14.3-112.3-110.5 0-27.5 7.6-41.3 23.6-58.9-2.6-6.5-11.1-33.3 2.6-67.9 20.9-6.5 69 27 69 27 20-5.6 41.5-8.5 62.8-8.5s42.8 2.9 62.8 8.5c0 0 48.1-33.6 69-27 13.7 34.7 5.2 61.4 2.6 67.9 16 17.7 25.8 31.5 25.8 58.9 0 96.5-58.9 104.2-114.8 110.5 9.2 7.9 17 22.9 17 46.4 0 33.7-.3 75.4-.3 83.6 0 6.5 4.6 14.4 17.3 12.1C428.2 457.8 496 362.9 496 252 496 113.3 383.5 8 244.8 8zM97.2 352.9c-1.3 1-1 3.3 .7 5.2 1.6 1.6 3.9 2.3 5.2 1 1.3-1 1-3.3-.7-5.2-1.6-1.6-3.9-2.3-5.2-1zm-10.8-8.1c-.7 1.3 .3 2.9 2.3 3.9 1.6 1 3.6 .7 4.3-.7 .7-1.3-.3-2.9-2.3-3.9-2-.6-3.6-.3-4.3 .7zm32.4 35.6c-1.6 1.3-1 4.3 1.3 6.2 2.3 2.3 5.2 2.6 6.5 1 1.3-1.3 .7-4.3-1.3-6.2-2.2-2.3-5.2-2.6-6.5-1zm-11.4-14.7c-1.6 1-1.6 3.6 0 5.9 1.6 2.3 4.3 3.3 5.6 2.3 1.6-1.3 1.6-3.9 0-6.2-1.4-2.3-4-3.3-5.6-2z"/>
    </symbol>

    <symbol id="linkedin" viewBox="0 0 448 512">        <!--!Font Awesome Free 6.7.2 by @fontawesome - https://fontawesome.com License - https://fontawesome.com/license/free Copyright 2025 Fonticons, Inc.-->
        <path d="M416 32H31.9C14.3 32 0 46.5 0 64.3v383.4C0 465.5 14.3 480 31.9 480H416c17.6 0 32-14.5 32-32.3V64.3c0-17.8-14.4-32.3-32-32.3zM135.4 416H69V202.2h66.5V416zm-33.2-243c-21.3 0-38.5-17.3-38.5-38.5S80.9 96 102.2 96c21.2 0 38.5 17.3 38.5 38.5 0 21.3-17.2 38.5-38.5 38.5zm282.1 243h-66.4V312c0-24.8-.5-56.7-34.5-56.7-34.6 0-39.9 27-39.9 54.9V416h-66.4V202.2h63.7v29.2h.9c8.9-16.8 30.6-34.5 62.9-34.5 67.2 0 79.7 44.3 79.7 101.9V416z"/>
    </symbol>

  <symbol xmlns="http://www.w3.org/2000/svg" viewBox="0 0 512 512" id="plane">
    <path d="M498.1 5.6c10.1 7 15.4 19.1 13.5 31.2l-64 416c-1.5 9.7-7.4 18.2-16 23s-18.9 5.4-28 1.6L284 427.7l-68.5 74.1c-8.9 9.7-22.9 12.9-35.2 8.1S160 493.2 160 480l0-83.6c0-4 1.5-7.8 4.2-10.8L331.8 202.8c5.8-6.3 5.6-16-.4-22s-15.7-6.4-22-.7L106 360.8 17.7 316.6C7.1 311.3 .3 300.7 0 288.9s5.9-22.8 16.1-28.7l448-256c10.7-6.1 23.9-5.5 34 1.4z"></path>
  </symbol>

  <symbol id="moon" viewBox="0 0 21 21">
<path d="M10.553 19.2499C13.7848 19.2499 16.7487 17.4781 18.2923 14.6247C18.4201 14.3903 18.3978 14.1037 18.2395 13.8917C18.0812 13.6796 17.8083 13.5777 17.5535 13.6357C17.0259 13.7509 16.4941 13.808 15.9706 13.808C11.8639 13.808 8.52147 10.4509 8.52147 6.32425C8.52147 5.07847 8.83395 3.84584 9.4226 2.75507C9.5504 2.52066 9.52814 2.23408 9.36984 2.02203C9.21154 1.80998 8.93863 1.70809 8.68388 1.76609C4.66543 2.63995 1.75 6.27124 1.75 10.4062C1.75 15.2832 5.69838 19.25 10.5529 19.25L10.553 19.2499Z"/>
</symbol>

<symbol id="sun" viewBox="0 0 19 19">
<path fill-rule="evenodd" clip-rule="evenodd" d="M13.4583 9.49967C13.4583 11.6862 11.6862 13.4583 9.49967 13.4583C7.31355 13.4583 5.54163 11.6862 5.54163 9.49967C5.54163 7.31355 7.3137 5.54163 9.49967 5.54163C11.6862 5.54163 13.4583 7.3137 13.4583 9.49967"/>
<path fill-rule="evenodd" clip-rule="evenodd" d="M11.3 1.74415C11.3 2.70751 10.5192 3.48904 9.55506 3.48904C8.5917 3.48904 7.81091 2.70751 7.81091 1.74415C7.81091 0.780788 8.5917 0 9.55506 0C10.5192 0 11.3 0.780788 11.3 1.74415"/>
<path fill-rule="evenodd" clip-rule="evenodd" d="M5.28875 2.74322C5.96933 3.42455 5.96933 4.52893 5.28875 5.21019C4.60743 5.89152 3.50305 5.89152 2.82178 5.21019C2.14046 4.52887 2.14046 3.42449 2.82178 2.74322C3.50311 2.06264 4.60748 2.06264 5.28875 2.74322Z"/>
<path fill-rule="evenodd" clip-rule="evenodd" d="M1.74415 7.7002C2.70751 7.7002 3.48904 8.48098 3.48904 9.44508C3.48904 10.4084 2.70751 11.1892 1.74415 11.1892C0.780788 11.1892 0 10.4084 0 9.44508C0 8.48098 0.780788 7.7002 1.74415 7.7002"/>
<path fill-rule="evenodd" clip-rule="evenodd" d="M2.74322 13.7112C3.42455 13.0307 4.52893 13.0307 5.21019 13.7112C5.89151 14.3926 5.89151 15.4969 5.21019 16.1782C4.52887 16.8595 3.42449 16.8595 2.74322 16.1782C2.06264 15.4969 2.06264 14.3925 2.74322 13.7112Z"/>
<path fill-rule="evenodd" clip-rule="evenodd" d="M11.1892 17.2559C11.1892 18.2192 10.4084 19 9.44508 19C8.48098 19 7.7002 18.2192 7.7002 17.2559C7.7002 16.2925 8.48098 15.511 9.44508 15.511C10.4084 15.511 11.1892 16.2925 11.1892 17.2559"/>
<path fill-rule="evenodd" clip-rule="evenodd" d="M13.7111 16.2568C13.0305 15.5754 13.0305 14.4711 13.7111 13.7898C14.3924 13.1085 15.4968 13.1085 16.1781 13.7898C16.8594 14.4711 16.8594 15.5755 16.1781 16.2568C15.4968 16.9374 14.3924 16.9374 13.7111 16.2568Z"/>
<path fill-rule="evenodd" clip-rule="evenodd" d="M17.2559 11.2999C16.2925 11.2999 15.511 10.5192 15.511 9.55506C15.511 8.5917 16.2925 7.81091 17.2559 7.81091C18.2192 7.81091 19 8.5917 19 9.55506C19 10.5192 18.2192 11.2999 17.2559 11.2999Z"/>
<path fill-rule="evenodd" clip-rule="evenodd" d="M16.2568 5.28887C15.5754 5.96945 14.4711 5.96945 13.7898 5.28887C13.1085 4.60755 13.1085 3.50317 13.7898 2.82191C14.4711 2.14058 15.5755 2.14058 16.2568 2.82191C16.9373 3.50323 16.9373 4.60761 16.2568 5.28887Z"/>
</symbol>

</svg>


</svg>
